<?xml version="1.0" encoding="UTF-8" standalone="no"?><!DOCTYPE svg PUBLIC "-//W3C//DTD SVG 1.1//EN" "http://www.w3.org/Graphics/SVG/1.1/DTD/svg11.dtd"><svg width="100%" height="100%" viewBox="0 0 54 54" version="1.1" xmlns="http://www.w3.org/2000/svg" xmlns:xlink="http://www.w3.org/1999/xlink" xml:space="preserve" xmlns:serif="http://www.serif.com/" style="fill-rule:evenodd;clip-rule:evenodd;stroke-linecap:round;stroke-miterlimit:10;"><rect x="-0" y="0" width="54" height="54" style="fill:none;"/><rect x="2" y="0" width="52" height="52" style="fill:none;"/><path d="M31,23l-11,0l0,-11" style="fill:none;fill-rule:nonzero;stroke:#fccb1a;stroke-width:2px;"/><path d="M32,51l-29,0l0,-40l17,0l12,12l0,28Z" style="fill:none;fill-rule:nonzero;stroke:#fccb1a;stroke-width:2px;"/><path d="M50,15l-11,0l0,-11" style="fill:none;fill-rule:nonzero;stroke:#fccb1a;stroke-width:2px;"/><path d="M39.414,2l-18.414,0l0,6l2,2l0,-6l15.586,0l11.414,11.414l0,26.586l-15,0l0,2l17,0l0,-29.414l-12.586,-12.586Z" style="fill:#fccb1a;fill-rule:nonzero;stroke:#fccb1a;stroke-width:1px;stroke-linecap:butt;stroke-linejoin:round;stroke-miterlimit:2;"/></svg>