<?xml version="1.0" encoding="UTF-8" standalone="no"?>
<!DOCTYPE svg PUBLIC "-//W3C//DTD SVG 1.1//EN" "http://www.w3.org/Graphics/SVG/1.1/DTD/svg11.dtd">
<svg width="100%" height="100%" viewBox="0 0 512 512" version="1.1" xmlns="http://www.w3.org/2000/svg" xmlns:xlink="http://www.w3.org/1999/xlink" xml:space="preserve" xmlns:serif="http://www.serif.com/" style="fill-rule:evenodd;clip-rule:evenodd;stroke-linejoin:round;stroke-miterlimit:2;">
    <path d="M189.3,128.4L89,233.4C83,239.2 80,247.1 80,255.8C80,264.5 83,272.3 89,278.2L189.3,383.6C201.2,396.1 220.6,396.1 232.5,383.6C244.4,371.1 244.4,350.9 232.5,338.4L184.4,288L401.4,288C418.3,288 432,273.7 432,256C432,238.3 418.3,224 401.4,224L184.4,224L232.6,173.6C244.5,161.1 244.5,140.9 232.6,128.4C220.6,115.9 201.3,115.9 189.3,128.4Z" style="fill-rule:nonzero;"/>
</svg>
