<?xml version="1.0" encoding="UTF-8" standalone="no"?>
<!DOCTYPE svg PUBLIC "-//W3C//DTD SVG 1.1//EN" "http://www.w3.org/Graphics/SVG/1.1/DTD/svg11.dtd">
<svg width="100%" height="100%" viewBox="0 0 512 512" version="1.1" xmlns="http://www.w3.org/2000/svg" xmlns:xlink="http://www.w3.org/1999/xlink" xml:space="preserve" xmlns:serif="http://www.serif.com/" style="fill-rule:evenodd;clip-rule:evenodd;stroke-linejoin:round;stroke-miterlimit:2;">
    <path d="M322.7,128.4L423,233.4C429,239.2 432,247.1 432,255.8C432,264.5 429,272.3 423,278.2L322.7,383.6C310.8,396.1 291.4,396.1 279.5,383.6C267.6,371.1 267.6,350.9 279.5,338.4L327.7,288L110.7,288C93.7,288 80,273.7 80,256C80,238.3 93.7,224 110.6,224L327.6,224L279.4,173.6C267.5,161.1 267.5,140.9 279.4,128.4C291.4,115.9 310.7,115.9 322.7,128.4Z" style="fill:white;fill-rule:nonzero;"/>
</svg>
